<svg width="182" height="62" viewBox="0 0 182 62" fill="none" xmlns="http://www.w3.org/2000/svg">
<path fill-rule="evenodd" clip-rule="evenodd" d="M20.6667 4.13333C20.6667 1.85056 18.8161 0 16.5333 0H4.13333C1.85056 0 0 1.85056 0 4.13333V16.5333C0 18.8161 1.85056 20.6667 4.13334 20.6667H16.5333C18.8161 20.6667 20.6667 18.8161 20.6667 16.5333V4.13333ZM57.8667 41.3333H45.4667C43.1839 41.3333 41.3333 43.1839 41.3333 45.4667V57.8667C41.3333 60.1494 43.1839 62 45.4667 62L57.8667 62C60.1494 62 62 60.1494 62 57.8667V45.4667C62 43.1839 60.1494 41.3333 57.8667 41.3333ZM60.7894 21.8773C61.5645 21.1021 62 20.0508 62 18.9546V4.13333C62 1.85056 60.1494 0 57.8667 0H45.4667C43.1839 0 41.3333 1.85056 41.3333 4.13333V16.5333C41.3333 18.8161 39.4828 20.6667 37.2 20.6667H22.3787C21.2825 20.6667 20.2312 21.1021 19.456 21.8773L1.21063 40.1227C0.435475 40.8979 0 41.9492 0 43.0454V57.8667C0 60.1494 1.85056 62 4.13333 62L16.5333 62C18.8161 62 20.6667 60.1494 20.6667 57.8667L20.6667 45.4667C20.6667 43.1839 22.5172 41.3333 24.8 41.3333H39.6212C40.7175 41.3333 41.7688 40.8979 42.544 40.1227L60.7894 21.8773ZM155.45 62L162.14 48.0265L151.146 23.0483H161.466L166.91 38.5573L171.94 23.0483H182L164.888 62H155.45ZM140.012 8V49.4597H149.397V8H140.012ZM123.04 50.2787C118.788 50.2787 115.555 49.2209 113.343 47.1052C111.165 44.9896 110.076 41.9014 110.076 37.8408V23.0483H119.514V37.5336C119.514 40.5365 120.706 42.0379 123.092 42.0379C124.302 42.0379 125.183 41.6796 125.736 40.963C126.289 40.2464 126.566 39.1033 126.566 37.5336V23.0483H136.003V37.8408C136.003 41.9014 134.897 44.9896 132.685 47.1052C130.507 49.2209 127.292 50.2787 123.04 50.2787ZM80 8V49.4597H89.3857V35.4863C89.3857 33.8825 89.7141 32.654 90.3709 31.8009C91.0623 30.9137 92.0476 30.4701 93.3266 30.4701C95.7119 30.4701 96.9046 32.0227 96.9046 35.128V49.4597H106.29V33.3877C106.29 29.7365 105.495 26.9725 103.905 25.0957C102.349 23.1848 100.068 22.2294 97.0602 22.2294C95.3317 22.2294 93.7933 22.5877 92.4451 23.3043C91.1315 23.9867 90.1116 24.9422 89.3857 26.1706V8H80Z" fill="#0B0D10"/>
</svg>
